<?xml version="1.0" encoding="utf-8"?>
<?xml-stylesheet type="text/xsl" href="rss1.xsl"?>
<rss version="2.0" xmlns:atom="http://www.w3.org/2005/Atom" xmlns:content="http://purl.org/rss/1.0/modules/content/" xmlns:dc="http://purl.org/dc/elements/1.1/" xmlns:media="http://search.yahoo.com/mrss/">
<channel>
 <title>Getty</title>
 <link>http://www.gettyimg.com/</link>
 <atom:link href="http://www.gettyimg.com/" rel="self" type="application/rss+xml" />

 
                <item>
                <title><![CDATA[【Albums (lossless)】FLAC - FIVE FINGER DEATH PUNCH - 2024 - AfterLife [Deluxe] [24Bit-48kHz]]]></title>
                <link><![CDATA[https://sharemania.us/threads/five-finger-death-punch-2024-afterlife-deluxe-24bit-48khz.241848/]]></link>
                <description><![CDATA[<article>
<blockquote class="messageText SelectQuoteContainer ugc baseHtml">
<div style="text-align: center"><img src="https://static.qobuz.com/images/covers/0b/z6/kio95zpe8z60b_600.jpg" class="bbCodeImage LbImage" alt="[​IMG]" data-url="https://static.qobuz.com/images/covers/0b/z6/kio95zpe8z60b_600.jpg" style=""> <br>
<br>
<b>Band</b>: Five Finger Death Punch<br>
<b>Album</b>: Afterlife [Deluxe]<br>
<b>Date</b>: 09 February 2024<br>
<b>Genre</b>: Groove Metal<br>
<b>Quality</b>: 24bit-48kHz<br>
<b>Country</b>: USA<br>
<b>Size</b>: 830,0MB<br>
<br>
<b>Tracklist</b>:<br>
<br>
1-Welcome To The Circus 04:16<br>
2-AfterLife 04:03<br>
3-Times Like These 03:29<br>
4-Roll Dem Bones 03:19<br>
5-Pick Up Behind You 03:08<br>
6-Judgement Day 04:52<br>
7-IOU 04:27<br>
8-Thanks For Asking 03:18<br>
9-Blood And Tar 03:22<br>
10-All I Know 05:11<br>
11-Gold Gutter 03:53<br>
12-The End 03:43<br>
13-This Is The Way (Feat. DMX) 02:47<br>
14-Judgement Day (Acoustic) 04:32<br>
15-The End (Acoustic) 03:43<br>
16-Thanks For Asking (Acoustic) 03:18<br>
<br>
<b><span style="font-size: 18px"><span style="color: #b30000">Filedot</span></span></b>:<br>
<br>
<div class="bbCodeBlock bbCodeVfcHH HiddenContent">
<div class="attribution type">Hidden Content:</div>
<blockquote>You must either reply or click 'Like' to see the hidden information contained here.</blockquote>
</div></div>
<div class="messageTextEndMarker">&nbsp;</div>
</blockquote>
</article>]]></description>
                <author><![CDATA[XRB80]]></author>
                </item>

                
                <item>
                <title><![CDATA[【MASTER &amp; MASTER RIP】MASTER - Ella Henderson x Tom Grennan - Let’s Go Home Together (Master 1080)]]></title>
                <link><![CDATA[https://sharemania.us/threads/ella-henderson-x-tom-grennan-let%E2%80%99s-go-home-together-master-1080.241849/]]></link>
                <description><![CDATA[<article>
<blockquote class="messageText SelectQuoteContainer ugc baseHtml">
<div style="text-align: center"><img src="https://i.ibb.co/rQ6f9CX/20240410161051.gif" class="bbCodeImage LbImage" alt="[​IMG]" data-url="https://i.ibb.co/rQ6f9CX/20240410161051.gif" style=""><br>
​</div>
<div class="ToggleTriggerAnchor bbCodeSpoilerContainer">
<button type="button" class="button bbCodeSpoilerButton ToggleTrigger Tooltip JsOnly" data-target="> .SpoilerTarget"><span>Spoiler: <span class="SpoilerTitle">MASTER</span></span></button>
<div class="SpoilerTarget bbCodeSpoilerText">
<div class="bbCodeBlock bbCodeCode">
<div class="type">Code:</div>
<pre>General
Complete name                            : Ella Henderson x Tom Grennan - Let’s Go Home Together.mp4
Format                                   : MPEG-4
Format profile                           : Base Media / Version 2
Codec ID                                 : mp42 (mp42/mp41)
File size                                : 618 MiB
Duration                                 : 3 min 38 s
Overall bit rate mode                    : Variable
Overall bit rate                         : 23.7 Mb/s
Frame rate                               : 25.000 FPS
Encoded date                             : 2021-02-12 18:27:51 UTC
Tagged date                              : 2021-02-12 18:32:52 UTC
TIM                                      : 10:00:00:00
TSC                                      : 25
TSZ                                      : 1

Video
ID                                       : 1
Format                                   : AVC
Format/Info                              : Advanced Video Codec
Format profile                           : High@L4.1
Format settings                          : CABAC / 4 Ref Frames
Format settings, CABAC                   : Yes
Format settings, Reference frames        : 4 frames
Codec ID                                 : avc1
Codec ID/Info                            : Advanced Video Coding
Duration                                 : 3 min 38 s
Bit rate                                 : 23.4 Mb/s
Width                                    : 1 920 pixels
Height                                   : 1 080 pixels
Display aspect ratio                     : 16:9
Frame rate mode                          : Constant
Frame rate                               : 25.000 FPS
Color space                              : YUV
Chroma subsampling                       : 4:2:0
Bit depth                                : 8 bits
Scan type                                : Progressive
Bits/(Pixel*Frame)                       : 0.451
Stream size                              : 610 MiB (99%)
Language                                 : English
Encoded date                             : 2021-02-12 18:27:52 UTC
Tagged date                              : 2021-02-12 18:27:52 UTC
Color range                              : Limited
Color primaries                          : BT.709
Transfer characteristics                 : BT.709
Matrix coefficients                      : BT.709
Codec configuration box                  : avcC

Audio
ID                                       : 2
Format                                   : AAC LC
Format/Info                              : Advanced Audio Codec Low Complexity
Codec ID                                 : 2 / 40 / mp4a-40-2
Duration                                 : 3 min 38 s
Source duration                          : 3 min 38 s
Bit rate mode                            : Variable
Bit rate                                 : 317 kb/s
Maximum bit rate                         : 461 kb/s
Channel(s)                               : 2 channels
Channel layout                           : L R
Sampling rate                            : 48.0 kHz
Frame rate                               : 46.875 FPS (1024 SPF)
Compression mode                         : Lossy
Stream size                              : 8.28 MiB (1%)
Source stream size                       : 8.28 MiB (1%)
Language                                 : English
Encoded date                             : 2021-02-12 18:27:52 UTC
Tagged date                              : 2021-02-12 18:27:52 UTC

</pre>
</div><div style="text-align: center">​</div></div>
</div><div style="text-align: center"><br>
<div class="bbCodeBlock bbCodeVfcHH HiddenContent">
<div class="attribution type">Hidden Content:</div>
<blockquote>You must reply before you can see the hidden data contained here.</blockquote>
</div></div>
<div class="messageTextEndMarker">&nbsp;</div>
</blockquote>
</article>]]></description>
                <author><![CDATA[fstambuk]]></author>
                </item>

                </channel></rss>